<svg width="22" height="13" viewBox="0 0 22 13" fill="none" xmlns="http://www.w3.org/2000/svg">
<path d="M10.4999 12.3269C10.6325 12.3269 10.7597 12.2742 10.8534 12.1805C10.9472 12.0867 10.9999 11.9595 10.9999 11.8269V0.826822C10.9999 0.739936 10.9772 0.654554 10.9341 0.579091C10.8911 0.503627 10.8291 0.440688 10.7543 0.396476C10.6795 0.352265 10.5945 0.328307 10.5076 0.326964C10.4207 0.325621 10.335 0.34694 10.2589 0.388819L0.258801 5.88886C0.180407 5.93202 0.115034 5.99543 0.0695038 6.07248C0.0239735 6.14952 -4.48227e-05 6.23737 -4.48227e-05 6.32686C-4.48227e-05 6.41635 0.0239735 6.5042 0.0695038 6.58125C0.115034 6.65829 0.180407 6.7217 0.258801 6.76486L10.2589 12.2649C10.3327 12.3056 10.4156 12.3269 10.4999 12.3269ZM9.99987 1.67183V10.9819L1.53731 6.32686L9.99987 1.67183Z" fill="#797A80"/>
<path d="M21.048 12.3269C21.1806 12.3269 21.3078 12.2742 21.4015 12.1805C21.4953 12.0867 21.548 11.9595 21.548 11.8269V0.826822C21.548 0.739936 21.5253 0.654554 21.4822 0.579091C21.4392 0.503627 21.3772 0.440688 21.3024 0.396476C21.2276 0.352265 21.1426 0.328307 21.0557 0.326964C20.9688 0.325621 20.8831 0.34694 20.807 0.388819L10.8069 5.88886C10.7285 5.93202 10.6631 5.99543 10.6176 6.07248C10.5721 6.14952 10.5481 6.23737 10.5481 6.32686C10.5481 6.41635 10.5721 6.5042 10.6176 6.58125C10.6631 6.65829 10.7285 6.7217 10.8069 6.76486L20.807 12.2649C20.8808 12.3056 20.9637 12.3269 21.048 12.3269ZM20.548 1.67183V10.9819L12.0854 6.32686L20.548 1.67183Z" fill="#797A80"/>
</svg>
