<svg width="23" height="13" viewBox="0 0 23 13" fill="none" xmlns="http://www.w3.org/2000/svg">
<path d="M11.5898 12.3269C11.4572 12.3269 11.3301 12.2742 11.2363 12.1805C11.1425 12.0867 11.0898 11.9595 11.0898 11.8269V0.826822C11.0899 0.739936 11.1125 0.654554 11.1556 0.579091C11.1986 0.503627 11.2606 0.440688 11.3354 0.396476C11.4102 0.352265 11.4952 0.328307 11.5821 0.326964C11.669 0.325621 11.7547 0.34694 11.8308 0.388819L21.8309 5.88886C21.9093 5.93202 21.9747 5.99543 22.0202 6.07248C22.0657 6.14952 22.0898 6.23737 22.0898 6.32686C22.0898 6.41635 22.0657 6.5042 22.0202 6.58125C21.9747 6.65829 21.9093 6.7217 21.8309 6.76486L11.8308 12.2649C11.757 12.3056 11.6741 12.3269 11.5898 12.3269ZM12.0899 1.67183V10.9819L20.5524 6.32686L12.0899 1.67183Z" fill="#797A80"/>
<path d="M1.04175 12.3269C0.909142 12.3269 0.781965 12.2742 0.688196 12.1805C0.594427 12.0867 0.541748 11.9595 0.541748 11.8269V0.826822C0.541763 0.739936 0.564419 0.654554 0.607482 0.579091C0.650545 0.503627 0.71253 0.440688 0.787326 0.396476C0.862123 0.352265 0.947149 0.328307 1.03402 0.326964C1.1209 0.325621 1.20663 0.34694 1.28275 0.388819L11.2828 5.88886C11.3612 5.93202 11.4266 5.99543 11.4721 6.07248C11.5177 6.14952 11.5417 6.23737 11.5417 6.32686C11.5417 6.41635 11.5177 6.5042 11.4721 6.58125C11.4266 6.65829 11.3612 6.7217 11.2828 6.76486L1.28275 12.2649C1.20893 12.3056 1.12603 12.3269 1.04175 12.3269ZM1.54176 1.67183V10.9819L10.0043 6.32686L1.54176 1.67183Z" fill="#797A80"/>
</svg>
