<svg width="33" height="38" viewBox="0 0 33 38" fill="none" xmlns="http://www.w3.org/2000/svg">
<g clip-path="url(#clip0)" filter="url(#filter0_dd)">
<path d="M13.3459 14.6125C12.8446 15.3792 12.2723 16.5167 11.6291 18.025C11.4453 17.65 11.2907 17.3479 11.1654 17.1188C11.0401 16.8896 10.8709 16.625 10.6579 16.325C10.4449 16.025 10.2318 15.7896 10.0188 15.6188C9.80576 15.4479 9.54261 15.3021 9.22932 15.1813C8.91604 15.0604 8.57561 15 8.20802 15H5.401C5.28404 15 5.18797 14.9625 5.11278 14.8875C5.03759 14.8125 5 14.7167 5 14.6V12.2C5 12.0833 5.03759 11.9875 5.11278 11.9125C5.18797 11.8375 5.28404 11.8 5.401 11.8H8.20802C10.2966 11.8 12.0092 12.7375 13.3459 14.6125ZM27.4561 24.6C27.4561 24.7167 27.4185 24.8125 27.3434 24.8875L23.3333 28.8875C23.2581 28.9625 23.1621 29 23.0451 29C22.9365 29 22.8425 28.9604 22.7632 28.8813C22.6838 28.8021 22.6441 28.7083 22.6441 28.6V26.2C22.3768 26.2 22.0217 26.2021 21.5789 26.2063C21.1362 26.2104 20.7978 26.2146 20.5639 26.2188C20.33 26.2229 20.0251 26.2188 19.6491 26.2063C19.2732 26.1938 18.9766 26.1729 18.7594 26.1438C18.5422 26.1146 18.2749 26.0708 17.9574 26.0125C17.6399 25.9542 17.3768 25.8771 17.1679 25.7812C16.9591 25.6854 16.7168 25.5667 16.4411 25.425C16.1654 25.2833 15.919 25.1167 15.7018 24.925C15.4845 24.7333 15.2548 24.5104 15.0125 24.2563C14.7703 24.0021 14.5363 23.7125 14.3108 23.3875C14.8037 22.6125 15.3718 21.475 16.015 19.975C16.1988 20.35 16.3534 20.6521 16.4787 20.8813C16.604 21.1104 16.7732 21.375 16.9862 21.675C17.1992 21.975 17.4123 22.2104 17.6253 22.3813C17.8383 22.5521 18.1015 22.6979 18.4148 22.8188C18.7281 22.9396 19.0685 23 19.4361 23H22.6441V20.6C22.6441 20.4833 22.6817 20.3875 22.7569 20.3125C22.8321 20.2375 22.9282 20.2 23.0451 20.2C23.1454 20.2 23.2456 20.2417 23.3459 20.325L27.3434 24.3125C27.4185 24.3875 27.4561 24.4833 27.4561 24.6ZM27.4561 13.4C27.4561 13.5167 27.4185 13.6125 27.3434 13.6875L23.3333 17.6875C23.2581 17.7625 23.1621 17.8 23.0451 17.8C22.9365 17.8 22.8425 17.7604 22.7632 17.6813C22.6838 17.6021 22.6441 17.5083 22.6441 17.4V15H19.4361C19.0351 15 18.6717 15.0625 18.3459 15.1875C18.0201 15.3125 17.7318 15.5 17.4812 15.75C17.2306 16 17.0175 16.2562 16.8421 16.5188C16.6667 16.7812 16.4787 17.1042 16.2782 17.4875C16.0109 18.0042 15.685 18.7167 15.3008 19.625C15.0585 20.175 14.8517 20.6375 14.6805 21.0125C14.5092 21.3875 14.2836 21.825 14.0038 22.325C13.7239 22.825 13.4566 23.2417 13.2018 23.575C12.947 23.9083 12.6378 24.2542 12.2744 24.6125C11.911 24.9708 11.5351 25.2563 11.1466 25.4688C10.7581 25.6812 10.3133 25.8563 9.81203 25.9937C9.31078 26.1313 8.77611 26.2 8.20802 26.2H5.401C5.28404 26.2 5.18797 26.1625 5.11278 26.0875C5.03759 26.0125 5 25.9167 5 25.8V23.4C5 23.2833 5.03759 23.1875 5.11278 23.1125C5.18797 23.0375 5.28404 23 5.401 23H8.20802C8.60902 23 8.97243 22.9375 9.29825 22.8125C9.62406 22.6875 9.91228 22.5 10.1629 22.25C10.4135 22 10.6266 21.7438 10.802 21.4812C10.9774 21.2188 11.1654 20.8958 11.3659 20.5125C11.6332 19.9958 11.9591 19.2833 12.3434 18.375C12.5856 17.825 12.7924 17.3625 12.9637 16.9875C13.1349 16.6125 13.3605 16.175 13.6404 15.675C13.9202 15.175 14.1876 14.7583 14.4424 14.425C14.6972 14.0917 15.0063 13.7458 15.3697 13.3875C15.7331 13.0292 16.109 12.7438 16.4975 12.5312C16.886 12.3188 17.3308 12.1437 17.8321 12.0063C18.3333 11.8688 18.868 11.8 19.4361 11.8H22.6441V9.4C22.6441 9.28333 22.6817 9.1875 22.7569 9.1125C22.8321 9.0375 22.9282 9 23.0451 9C23.1454 9 23.2456 9.04167 23.3459 9.125L27.3434 13.1125C27.4185 13.1875 27.4561 13.2833 27.4561 13.4Z" fill="#302C30"/>
</g>
<defs>
<filter id="filter0_dd" x="0" y="0" width="32.4561" height="38" filterUnits="userSpaceOnUse" color-interpolation-filters="sRGB">
<feFlood flood-opacity="0" result="BackgroundImageFix"/>
<feColorMatrix in="SourceAlpha" type="matrix" values="0 0 0 0 0 0 0 0 0 0 0 0 0 0 0 0 0 0 127 0"/>
<feOffset dy="4"/>
<feGaussianBlur stdDeviation="2.5"/>
<feColorMatrix type="matrix" values="0 0 0 0 0.27451 0 0 0 0 0.133333 0 0 0 0 0.290196 0 0 0 1 0"/>
<feBlend mode="normal" in2="BackgroundImageFix" result="effect1_dropShadow"/>
<feColorMatrix in="SourceAlpha" type="matrix" values="0 0 0 0 0 0 0 0 0 0 0 0 0 0 0 0 0 0 127 0"/>
<feOffset dy="-4"/>
<feGaussianBlur stdDeviation="2.5"/>
<feColorMatrix type="matrix" values="0 0 0 0 0.278431 0 0 0 0 0.396078 0 0 0 0 0.396078 0 0 0 1 0"/>
<feBlend mode="normal" in2="effect1_dropShadow" result="effect2_dropShadow"/>
<feBlend mode="normal" in="SourceGraphic" in2="effect2_dropShadow" result="shape"/>
</filter>
<clipPath id="clip0">
<rect width="22.4561" height="20" fill="white" transform="translate(5 9)"/>
</clipPath>
</defs>
</svg>
