<svg width="25" height="28" viewBox="0 0 25 28" fill="none" xmlns="http://www.w3.org/2000/svg">
<path d="M1.10852 28C0.814522 28 0.532566 27.8771 0.324678 27.6583C0.11679 27.4395 0 27.1427 0 26.8333V1.16648C3.29795e-05 0.963742 0.0502611 0.764516 0.145734 0.588435C0.241206 0.412354 0.378628 0.265495 0.544453 0.162335C0.710279 0.0591744 0.898784 0.00327234 1.09139 0.000139351C1.28399 -0.00299364 1.47405 0.0467506 1.64283 0.144468L23.8132 12.9779C23.987 13.0786 24.132 13.2266 24.2329 13.4063C24.3338 13.5861 24.3871 13.7911 24.3871 13.9999C24.3871 14.2087 24.3338 14.4137 24.2329 14.5935C24.132 14.7732 23.987 14.9212 23.8132 15.0219L1.64283 27.8553C1.47915 27.9502 1.29536 27.9999 1.10852 28Z" fill="url(#paint0_linear)"/>
<defs>
<linearGradient id="paint0_linear" x1="12.1935" y1="0" x2="12.1935" y2="28" gradientUnits="userSpaceOnUse">
<stop stop-color="#51BECD"/>
<stop offset="1" stop-color="#0B5D68"/>
</linearGradient>
</defs>
</svg>
