<svg width="23" height="20" viewBox="0 0 23 20" fill="none" xmlns="http://www.w3.org/2000/svg">
<path d="M8.34586 5.6125C7.84461 6.37917 7.27235 7.51667 6.62907 9.025C6.44528 8.65 6.29073 8.34792 6.16541 8.11875C6.0401 7.88958 5.87093 7.625 5.65789 7.325C5.44486 7.025 5.23183 6.78958 5.0188 6.61875C4.80576 6.44792 4.54261 6.30208 4.22932 6.18125C3.91604 6.06042 3.57561 6 3.20802 6H0.401002C0.284043 6 0.18797 5.9625 0.112782 5.8875C0.037594 5.8125 0 5.71667 0 5.6V3.2C0 3.08333 0.037594 2.9875 0.112782 2.9125C0.18797 2.8375 0.284043 2.8 0.401002 2.8H3.20802C5.29657 2.8 7.00919 3.7375 8.34586 5.6125ZM22.4561 15.6C22.4561 15.7167 22.4185 15.8125 22.3434 15.8875L18.3333 19.8875C18.2581 19.9625 18.1621 20 18.0451 20C17.9365 20 17.8425 19.9604 17.7632 19.8813C17.6838 19.8021 17.6441 19.7083 17.6441 19.6V17.2C17.3768 17.2 17.0217 17.2021 16.5789 17.2063C16.1362 17.2104 15.7978 17.2146 15.5639 17.2188C15.33 17.2229 15.0251 17.2188 14.6491 17.2063C14.2732 17.1938 13.9766 17.1729 13.7594 17.1438C13.5422 17.1146 13.2749 17.0708 12.9574 17.0125C12.6399 16.9542 12.3768 16.8771 12.1679 16.7812C11.9591 16.6854 11.7168 16.5667 11.4411 16.425C11.1654 16.2833 10.919 16.1167 10.7018 15.925C10.4845 15.7333 10.2548 15.5104 10.0125 15.2563C9.77026 15.0021 9.53634 14.7125 9.31078 14.3875C9.80368 13.6125 10.3718 12.475 11.015 10.975C11.1988 11.35 11.3534 11.6521 11.4787 11.8813C11.604 12.1104 11.7732 12.375 11.9862 12.675C12.1992 12.975 12.4123 13.2104 12.6253 13.3813C12.8383 13.5521 13.1015 13.6979 13.4148 13.8188C13.7281 13.9396 14.0685 14 14.4361 14H17.6441V11.6C17.6441 11.4833 17.6817 11.3875 17.7569 11.3125C17.8321 11.2375 17.9282 11.2 18.0451 11.2C18.1454 11.2 18.2456 11.2417 18.3459 11.325L22.3434 15.3125C22.4185 15.3875 22.4561 15.4833 22.4561 15.6ZM22.4561 4.4C22.4561 4.51667 22.4185 4.6125 22.3434 4.6875L18.3333 8.6875C18.2581 8.7625 18.1621 8.8 18.0451 8.8C17.9365 8.8 17.8425 8.76042 17.7632 8.68125C17.6838 8.60208 17.6441 8.50833 17.6441 8.4V6H14.4361C14.0351 6 13.6717 6.0625 13.3459 6.1875C13.0201 6.3125 12.7318 6.5 12.4812 6.75C12.2306 7 12.0175 7.25625 11.8421 7.51875C11.6667 7.78125 11.4787 8.10417 11.2782 8.4875C11.0109 9.00417 10.685 9.71667 10.3008 10.625C10.0585 11.175 9.85171 11.6375 9.68045 12.0125C9.50919 12.3875 9.28363 12.825 9.00376 13.325C8.72389 13.825 8.45656 14.2417 8.20175 14.575C7.94695 14.9083 7.63784 15.2542 7.27444 15.6125C6.91103 15.9708 6.53509 16.2563 6.14662 16.4688C5.75815 16.6812 5.31328 16.8563 4.81203 16.9937C4.31078 17.1313 3.77611 17.2 3.20802 17.2H0.401002C0.284043 17.2 0.18797 17.1625 0.112782 17.0875C0.037594 17.0125 0 16.9167 0 16.8V14.4C0 14.2833 0.037594 14.1875 0.112782 14.1125C0.18797 14.0375 0.284043 14 0.401002 14H3.20802C3.60902 14 3.97243 13.9375 4.29825 13.8125C4.62406 13.6875 4.91228 13.5 5.16291 13.25C5.41353 13 5.62657 12.7438 5.802 12.4812C5.97744 12.2188 6.16541 11.8958 6.36591 11.5125C6.63325 10.9958 6.95906 10.2833 7.34336 9.375C7.58563 8.825 7.7924 8.3625 7.96366 7.9875C8.13492 7.6125 8.36048 7.175 8.64035 6.675C8.92022 6.175 9.18755 5.75833 9.44236 5.425C9.69716 5.09167 10.0063 4.74583 10.3697 4.3875C10.7331 4.02917 11.109 3.74375 11.4975 3.53125C11.886 3.31875 12.3308 3.14375 12.8321 3.00625C13.3333 2.86875 13.868 2.8 14.4361 2.8H17.6441V0.4C17.6441 0.283333 17.6817 0.1875 17.7569 0.1125C17.8321 0.0375 17.9282 0 18.0451 0C18.1454 0 18.2456 0.0416667 18.3459 0.125L22.3434 4.1125C22.4185 4.1875 22.4561 4.28333 22.4561 4.4Z" fill="#302C30"/>
</svg>
