<svg width="42" height="44" viewBox="0 0 42 44" fill="none" xmlns="http://www.w3.org/2000/svg">
<path d="M40.89 27.5518L37.7106 24.8174C37.8611 23.8897 37.9388 22.9424 37.9388 21.9952C37.9388 21.0479 37.8611 20.1006 37.7106 19.1729L40.89 16.4385C41.1298 16.232 41.3015 15.957 41.3821 15.65C41.4627 15.3429 41.4486 15.0185 41.3414 14.7198L41.2978 14.5928C40.4225 12.132 39.1118 9.85082 37.4291 7.85943L37.3417 7.7569C37.1376 7.51545 36.8655 7.34189 36.5614 7.25908C36.2573 7.17627 35.9353 7.18811 35.638 7.29303L31.6917 8.70416C30.2355 7.50299 28.6094 6.55572 26.8522 5.89166L26.0902 1.74127C26.0327 1.42898 25.8821 1.14167 25.6584 0.917531C25.4347 0.693387 25.1485 0.543014 24.8378 0.486389L24.7068 0.461975C22.1778 0.00299075 19.5178 0.00299075 16.9889 0.461975L16.8578 0.486389C16.5472 0.543014 16.261 0.693387 16.0373 0.917531C15.8136 1.14167 15.663 1.42898 15.6055 1.74127L14.8386 5.91119C13.0954 6.57539 11.4721 7.52216 10.0331 8.71393L6.05766 7.29303C5.76043 7.18728 5.43824 7.17501 5.13392 7.25787C4.82959 7.34073 4.55754 7.51478 4.3539 7.7569L4.26653 7.85943C2.58581 9.85223 1.27537 12.1331 0.397885 14.5928L0.354199 14.7198C0.135768 15.3301 0.315367 16.0137 0.805622 16.4385L4.02383 19.2022C3.87335 20.1202 3.80054 21.0577 3.80054 21.9903C3.80054 22.9278 3.87335 23.8653 4.02383 24.7784L0.805622 27.542C0.565813 27.7486 0.394179 28.0236 0.313542 28.3306C0.232905 28.6376 0.247085 28.9621 0.354199 29.2608L0.397885 29.3878C1.27646 31.8487 2.57733 34.1192 4.26653 36.1212L4.3539 36.2237C4.55803 36.4651 4.8301 36.6387 5.13424 36.7215C5.43839 36.8043 5.76033 36.7925 6.05766 36.6876L10.0331 35.2667C11.4796 36.4629 13.096 37.4102 14.8386 38.0694L15.6055 42.2393C15.663 42.5516 15.8136 42.8389 16.0373 43.0631C16.261 43.2872 16.5472 43.4376 16.8578 43.4942L16.9889 43.5186C19.5411 43.9801 22.1546 43.9801 24.7068 43.5186L24.8378 43.4942C25.1485 43.4376 25.4347 43.2872 25.6584 43.0631C25.8821 42.8389 26.0327 42.5516 26.0902 42.2393L26.8522 38.0889C28.6087 37.4266 30.2439 36.4762 31.6917 35.2764L35.638 36.6876C35.9352 36.7933 36.2574 36.8056 36.5617 36.7227C36.8661 36.6399 37.1381 36.4658 37.3417 36.2237L37.4291 36.1212C39.1183 34.1143 40.4192 31.8487 41.2978 29.3878L41.3414 29.2608C41.5599 28.6602 41.3803 27.9766 40.89 27.5518ZM34.2643 19.7491C34.3857 20.4864 34.4487 21.2432 34.4487 22.0001C34.4487 22.7569 34.3857 23.5137 34.2643 24.251L33.9439 26.209L37.5699 29.3292C37.0202 30.603 36.3263 31.8089 35.5021 32.9229L30.9976 31.3165L29.4734 32.5762C28.3133 33.5333 27.0221 34.2852 25.6242 34.8126L23.7748 35.5108L22.9059 40.2471C21.535 40.4034 20.1509 40.4034 18.78 40.2471L17.9111 35.501L16.0763 34.793C14.6929 34.2657 13.4066 33.5137 12.2562 32.5616L10.7321 31.2969L6.19842 32.918C5.37324 31.7999 4.68397 30.5938 4.13062 29.3243L7.79539 26.1749L7.47988 24.2217C7.36339 23.4942 7.30029 22.7422 7.30029 22.0001C7.30029 21.253 7.35853 20.5059 7.47988 19.7784L7.79539 17.8253L4.13062 14.6758C4.67912 13.4014 5.37324 12.2003 6.19842 11.0821L10.7321 12.7032L12.2562 11.4385C13.4066 10.4864 14.6929 9.73443 16.0763 9.20709L17.916 8.50885L18.7849 3.76276C20.1488 3.60651 21.5419 3.60651 22.9108 3.76276L23.7796 8.49908L25.629 9.19732C27.0221 9.72467 28.3181 10.4766 29.4782 11.4337L31.0024 12.6934L35.5069 11.087C36.3321 12.2051 37.0214 13.4112 37.5747 14.6807L33.9488 17.8008L34.2643 19.7491ZM20.8527 12.918C16.1346 12.918 12.3096 16.7657 12.3096 21.5118C12.3096 26.2579 16.1346 30.1055 20.8527 30.1055C25.5708 30.1055 29.3957 26.2579 29.3957 21.5118C29.3957 16.7657 25.5708 12.918 20.8527 12.918ZM24.6971 25.379C24.1928 25.8876 23.5936 26.291 22.9338 26.5659C22.2741 26.8407 21.5668 26.9816 20.8527 26.9805C19.4013 26.9805 18.0373 26.4092 17.0083 25.379C16.5026 24.8717 16.1016 24.269 15.8284 23.6053C15.5552 22.9416 15.4151 22.2301 15.4162 21.5118C15.4162 20.0518 15.9841 18.6797 17.0083 17.6446C18.0373 16.6094 19.4013 16.043 20.8527 16.043C22.304 16.043 23.668 16.6094 24.6971 17.6446C25.2027 18.1518 25.6037 18.7546 25.8769 19.4183C26.1502 20.082 26.2903 20.7934 26.2892 21.5118C26.2892 22.9717 25.7212 24.3438 24.6971 25.379Z" fill="url(#paint0_linear)"/>
<defs>
<linearGradient id="paint0_linear" x1="20.8478" y1="0.117737" x2="20.8478" y2="43.8647" gradientUnits="userSpaceOnUse">
<stop stop-color="#51BECD"/>
<stop offset="1" stop-color="#0B5D68"/>
</linearGradient>
</defs>
</svg>
